<svg version="1.1" id="Layer_1" xmlns="http://www.w3.org/2000/svg" x="0" y="0" viewBox="0 0 160.2 34.2" xml:space="preserve"><style>.st0{fill:#333}</style><path class="st0" d="M42.1 10.9c.1.1.1.5.1 1.1s0 1-.1 1.2c-1.1.8-2.5 1.1-4.1 1.1-2.2 0-3.9-.6-5.2-2-1.3-1.3-2-2.9-2-4.8s.7-3.5 2-4.8c1.3-1.3 3.1-2 5.2-2 1.6 0 3 .4 4.1 1.1.1.2.1.6.1 1.2s0 1-.1 1.1c-1.3-.8-2.7-1.3-3.9-1.3-1.3 0-2.5.4-3.4 1.3-.9.9-1.3 2-1.3 3.3s.5 2.5 1.3 3.4c.9.9 2 1.3 3.4 1.3 1.2.1 2.6-.4 3.9-1.2zm14-8.2C57.4 4 58 5.6 58 7.5s-.6 3.5-1.9 4.8-2.9 2-5 2c-2 0-3.6-.7-4.9-2s-1.9-2.9-1.9-4.8.6-3.5 1.9-4.8 2.9-2 4.9-2c2.1 0 3.7.7 5 2zm-7.9 1.5c-.8.9-1.2 2-1.2 3.3s.4 2.5 1.2 3.4c.8.9 1.8 1.3 3 1.3s2.2-.4 3-1.3c.8-.9 1.2-2 1.2-3.4S55 5 54.2 4.2s-1.8-1.3-3-1.3-2.2.4-3 1.3zM76.3 14c-.8.2-1.7.2-2.5 0l-1.9-8.4-3 8.4c-.7.1-1.4.1-2.1 0l-3-8.4-1.9 8.4c-.8.2-1.7.2-2.5 0l3.1-13c.7-.1 1.5-.1 2.2 0l3.2 8.9L71 1c.7-.1 1.5-.1 2.2 0l3.1 13zm7.5-13c1.5 0 2.6.4 3.5 1.2s1.3 1.8 1.3 3.1-.4 2.3-1.3 3.1-2.1 1.2-3.5 1.2h-2.3V14c-.9.2-1.7.2-2.6 0V1h4.9zm0 6.5c.7 0 1.2-.2 1.6-.6s.6-.9.6-1.6c0-.7-.2-1.2-.6-1.6s-.9-.6-1.6-.6h-2.3v4.3c0 .1 2.3.1 2.3.1zm16.3 4.4c.2.7.2 1.4 0 2.2h-8.5V1c.9-.2 1.7-.2 2.6 0v10.8h5.9zm15.1 2.1c-.9.2-1.8.2-2.7 0l-1.1-2.9h-5.2l-1.1 2.9c-.9.2-1.8.2-2.7 0l5.3-13c.7-.1 1.4-.1 2.2 0l5.3 13zm-4.6-5l-1.8-4.6L107 9h3.6zm9.8 5c-.9.2-1.7.2-2.6 0V1c.9-.2 1.7-.2 2.6 0v13zm15.3 0c-.7.1-1.4.1-2 0l-6.8-8.6V14c-.9.2-1.7.2-2.6 0V1c.7-.1 1.4-.1 2 0l6.8 8.6V1c.9-.2 1.7-.2 2.6 0v13zm13.2-13c.1.7.1 1.4 0 2.2h-3.8V14c-.9.2-1.7.2-2.6 0V3.2h-3.8c-.1-.7-.1-1.4 0-2.2h10.2zm10.4.8c.1.2.1.6.1 1.3s0 1.1-.1 1.2c-1.4-.9-2.6-1.4-3.6-1.4-.6 0-1.1.1-1.4.4s-.5.7-.5 1.1c0 .5.2.8.6 1.1s1.1.5 2.1.8c.5.2 1 .3 1.4.5.4.2.8.4 1.2.7s.7.7.9 1.1c.2.5.3 1 .3 1.6 0 1.3-.4 2.2-1.3 2.9s-2 1-3.3 1c-1.5 0-2.8-.4-4-1.1-.1-.2-.1-.6-.1-1.3s0-1.1.1-1.2c1.4.9 2.7 1.4 3.9 1.4.7 0 1.2-.1 1.6-.4s.6-.7.6-1.2-.2-.9-.6-1.1-1.1-.5-2.2-.9c-.5-.2-1-.4-1.3-.5-.4-.2-.8-.4-1.1-.7s-.7-.7-.9-1.1c-.2-.4-.3-.9-.3-1.5 0-1.1.4-2.1 1.2-2.8s1.9-1.2 3.3-1.2c1.1.2 2.3.6 3.4 1.3zM37.9 18c1.2 0 2.2.3 3 .9.8.6 1.2 1.4 1.2 2.4 0 1.4-.6 2.3-1.8 2.9.7.3 1.2.7 1.6 1.2s.6 1.2.6 1.9c0 1.1-.4 2-1.2 2.7-.8.6-1.9 1-3.2 1h-5.5V18h5.3zm-2.8 5.5h2.6c.5 0 1-.1 1.3-.4s.5-.7.5-1.2-.2-1-.5-1.2c-.3-.3-.8-.4-1.3-.4h-2.6v3.2zm0 5.4h2.7c.6 0 1.1-.2 1.5-.5s.5-.8.5-1.3-.2-1-.5-1.3c-.3-.3-.8-.5-1.5-.5h-2.7v3.6zm21.3-9.2c1.3 1.3 1.9 2.9 1.9 4.8s-.6 3.5-1.9 4.8-2.9 2-5 2c-2 0-3.6-.7-4.9-2s-1.9-2.9-1.9-4.8.6-3.5 1.9-4.8 2.9-2 4.9-2c2.1 0 3.7.7 5 2zm-8 1.5c-.8.9-1.2 2-1.2 3.4s.4 2.5 1.2 3.4c.8.9 1.8 1.3 3 1.3s2.2-.4 3-1.3 1.2-2 1.2-3.4-.4-2.5-1.2-3.4-1.8-1.3-3-1.3-2.2.4-3 1.3zM71.8 31c-.9.2-1.8.2-2.7 0L68 28.1h-5.2L61.6 31c-.9.2-1.8.2-2.7 0l5.3-13c.7-.1 1.4-.1 2.2 0l5.4 13zm-4.7-5l-1.8-4.6-1.8 4.6h3.6zM79 18c1.5 0 2.6.4 3.5 1.2s1.3 1.8 1.3 3.1c0 .9-.2 1.7-.7 2.4-.5.7-1.2 1.2-2 1.5l3.3 4.9c-.9.2-1.9.2-2.8 0l-3.1-4.5h-1.9V31c-.9.2-1.7.2-2.6 0V18h5zm-2.5 6.3H79c.7 0 1.2-.2 1.6-.5.4-.4.6-.9.6-1.5s-.2-1.1-.6-1.5-.9-.6-1.6-.6h-2.5v4.1zM91.8 18c2.1 0 3.8.6 5 1.8s1.9 2.8 1.9 4.7-.6 3.4-1.9 4.7-2.9 1.8-5 1.8h-4.7V18h4.7zm0 10.9c1.3 0 2.3-.4 3.1-1.2s1.2-1.8 1.2-3.2-.4-2.4-1.2-3.2-1.8-1.2-3.1-1.2h-2.1v8.7h2.1zm13-7.7h-1.2v2.1h-1.1v-5.4h2.3c.7 0 1.3.1 1.7.4s.6.7.6 1.2c0 .4-.1.7-.3.9-.2.3-.5.4-.9.6l1.4 2.3h-1.2l-1.3-2.1zm-1.2-.7h1.1c.4 0 .7-.1.9-.2s.3-.4.3-.7c0-.3-.1-.5-.3-.7s-.5-.2-.9-.3h-1.2l.1 1.9zm9.5.4h-2.6v1.7h3.1v.8h-4.2V18h4.2v.8h-3v1.5h2.6v.6zm6 1c0-.2-.1-.4-.3-.5-.2-.1-.6-.3-1.1-.4s-.9-.3-1.2-.4c-.6-.3-.9-.7-.9-1.2 0-.4.2-.8.6-1.1s1-.4 1.6-.4c.4 0 .8.1 1.2.2s.6.3.8.6.3.5.3.9H119c0-.3-.1-.5-.3-.7s-.5-.2-.9-.2-.7.1-.8.2c-.2.1-.3.3-.3.5s.1.4.3.5.6.3 1.1.4.9.3 1.2.4c.3.2.5.3.7.5s.2.5.2.7c0 .5-.2.8-.6 1.1s-1 .4-1.7.4c-.5 0-.9-.1-1.3-.2s-.7-.4-.9-.6c-.2-.3-.3-.6-.3-.9h1.1c0 .3.1.5.4.7s.6.3 1 .3.7-.1.9-.2c.2-.2.3-.4.3-.6zm8.4-1.2c0 .5-.1 1-.3 1.4s-.5.7-.9.9c-.4.2-.9.3-1.4.3s-1-.1-1.4-.3c-.4-.2-.7-.5-.9-.9s-.3-.9-.3-1.4v-.3c0-.5.1-1 .3-1.4.2-.4.5-.7.9-.9.4-.2.9-.3 1.4-.3s1 .1 1.4.3c.4.2.7.5.9.9s.3.9.3 1.4v.3zm-1.1-.3c0-.6-.1-1.1-.4-1.4-.3-.3-.7-.5-1.1-.5-.5 0-.9.2-1.1.5s-.4.8-.4 1.4v.3c0 .6.1 1.1.4 1.4.3.3.7.5 1.1.5s.9-.2 1.1-.5c.3-.3.4-.8.4-1.4v-.3zm4.6 2.2h2.9v.8h-4V18h1.1v4.6zm6.7-.5l1.6-4.3h1.2l-2.3 5.4h-1.1l-2.3-5.4h1.2l1.7 4.3zm6 1.2h-1.1v-5.4h1.1v5.4zm7.7 0h-1.1l-2.9-3.9v3.9h-1.1v-5.4h1.1l2.9 3.9v-3.9h1.1v5.4zm7.5-.7c-.2.3-.6.5-1 .6s-.9.2-1.4.2c-.5 0-1-.1-1.4-.3s-.7-.5-1-.9c-.2-.4-.3-.8-.4-1.4v-.4c0-.8.2-1.5.7-1.9.5-.5 1.1-.7 1.9-.7.7 0 1.3.1 1.7.5.4.3.7.7.8 1.3h-1.1c-.1-.6-.6-1-1.3-1-.5 0-.9.1-1.1.5s-.4.8-.4 1.3v.4c0 .6.1 1 .4 1.4.3.3.7.5 1.2.5.6 0 1-.1 1.2-.3v-1.1h-1.3v-.7h2.4v2zm-53.2 7.3c0-.2-.1-.4-.3-.5-.2-.1-.6-.3-1.1-.4s-.9-.3-1.2-.4c-.6-.3-.9-.7-.9-1.2 0-.4.2-.8.6-1.1s1-.4 1.6-.4c.4 0 .8.1 1.2.2s.6.3.8.6.3.5.3.9h-1.1c0-.3-.1-.5-.3-.7s-.5-.2-.9-.2-.7.1-.8.2c-.2.1-.3.3-.3.5s.1.4.3.5.6.3 1.1.4.9.3 1.2.4c.3.2.5.3.7.5s.2.5.2.7c0 .5-.2.8-.6 1.1s-1 .4-1.7.4c-.5 0-.9-.1-1.3-.2s-.7-.3-.9-.6c-.2-.3-.3-.6-.3-.9h1.1c0 .3.1.5.4.7.2.2.6.3 1 .3s.7-.1.9-.2c.2-.2.3-.4.3-.6zm4.3 1.4h-1.1v-5.4h1.1v5.4zm7.7 0h-1.1l-2.8-3.9v3.9h-1.1v-5.4h1.1l2.9 3.9v-3.9h1.1v5.4zm7.5-1.8c-.1.6-.3 1-.8 1.4s-1 .5-1.8.5c-.5 0-1-.1-1.3-.3-.4-.2-.7-.5-.9-.9s-.3-.8-.3-1.3v-.5c0-.5.1-1 .3-1.4s.5-.7.9-.9.9-.3 1.4-.3c.7 0 1.3.2 1.7.5s.7.8.8 1.4H124c-.1-.4-.2-.7-.4-.9-.2-.2-.5-.3-.9-.3-.5 0-.8.1-1.1.5-.3.3-.4.7-.4 1.3v.5c0 .6.1 1 .4 1.3.3.3.6.5 1.1.5.4 0 .8-.1 1-.3s.4-.4.4-.8h1.1zm5.9-.6h-2.6v1.7h3.1v.8h-4.2V26h4.2v.8h-3v1.5h2.6l-.1.6zm9.2 2.4H136v-.6l2.1-2 .7-.7c.1-.2.2-.4.2-.6 0-.3-.1-.5-.3-.6s-.4-.2-.7-.2c-.4 0-.6.1-.8.3s-.3.4-.3.7h-1.1c0-.3.1-.6.3-.9.2-.3.4-.5.8-.6.3-.1.7-.2 1.1-.2.6 0 1.1.1 1.5.4s.5.6.5 1.1c0 .3-.1.6-.3.9-.2.3-.5.6-.9 1l-1.6 1.4h3v.6zm6.1-2.3c0 .8-.2 1.4-.5 1.8-.3.4-.9.6-1.6.6-.7 0-1.2-.2-1.6-.6-.4-.4-.5-1-.5-1.7v-.9c0-.8.2-1.4.5-1.8.3-.4.9-.6 1.6-.6.7 0 1.2.2 1.6.6.3.4.5 1 .5 1.7v.9zm-1.1-1c0-.5-.1-.9-.3-1.1-.2-.2-.4-.4-.8-.4s-.6.1-.8.3-.3.6-.3 1.1v1.2c0 .5.1.9.3 1.1s.4.4.8.4c.3 0 .6-.1.8-.3.2-.2.3-.6.3-1.1V28zm7.3 1c0 .8-.2 1.4-.5 1.8-.3.4-.9.6-1.6.6-.7 0-1.2-.2-1.6-.6-.4-.4-.5-1-.5-1.7v-.9c0-.8.2-1.4.5-1.8.3-.4.9-.6 1.6-.6.7 0 1.2.2 1.6.6.3.4.5 1 .5 1.7v.9zm-1.1-1c0-.5-.1-.9-.3-1.1-.2-.2-.4-.4-.8-.4s-.6.1-.8.3-.3.6-.3 1.1v1.2c0 .5.1.9.3 1.1s.4.4.8.4c.3 0 .6-.1.8-.3.2-.2.3-.6.3-1.1V28zm6.7 1.4h.8v.7h-.8v1.2h-1.1v-1.2h-2.8v-.5l2.8-3.7h1.1v3.5zm-2.7 0h1.7v-2.3l-.1.1-1.6 2.2z"/><g id="Thumb_Up_Outline_Symbol_2_"><path class="st0" d="M13 0C4.1 0 0 2.6 0 2.6v20.5C0 31 13 34.2 13 34.2s13-3.1 13-11.1V2.6S21.8 0 13 0zm10.6 22.4c0 6.6-10.6 9.4-10.6 9.4S2.4 29 2.4 22.4V4.7S6.1 2.3 13 2.3s10.6 2.4 10.6 2.4v17.7z"/><path class="st0" d="M13 16.5v13c3.4 0 9.4-4.1 9.4-7.6v-5.4H13zM3.5 6.4v10.2H13V4C7.2 4 3.5 6.4 3.5 6.4z"/></g></svg>