<svg version="1.1" id="Layer_1" xmlns="http://www.w3.org/2000/svg" x="0" y="0" viewBox="0 0 512 512" xml:space="preserve"><style>.st0{fill:#7e7e7e}</style><path class="st0" d="M256 265.2h-1.1c-15.1-.3-27.3-5.5-36.3-15.7-19.9-22.4-16.6-61-16.2-64.6 1.3-26.8 13.6-39.9 23.8-46.1 11.5-7.1 23.7-7.9 28.4-7.9h2.2c4.7 0 16.9.8 28.4 7.9 10.2 6.3 22.5 19.4 23.8 46.1.4 3.6 3.7 42.1-16.2 64.6-9 10.1-21.2 15.4-36.3 15.7h-.5zm-.3-13h.3c11.6-.1 20.5-3.8 27.2-11.3 16.7-18.8 13-54.4 13-54.8v-.4c-1.8-38.8-30.5-41.8-39.2-41.8h-2.3c-8.8 0-37.4 3-39.2 41.8v.4c0 .4-3.6 36.1 13 54.8 6.6 7.5 15.5 11.2 27.1 11.3h.1zm.4 128.9c-3.6 0-6.5-2.9-6.5-6.5s2.9-6.5 6.5-6.5c50.8 0 84-16.9 92.2-21.5.8-3.9 1.2-10.7 1.2-15.5-.1-.5-.1-1-.1-1.5.7-9.8-.2-26.8-14-30.3-25.9-6.6-46.7-21.1-47.6-21.7-2.9-2.1-3.6-6.1-1.6-9.1 2.1-2.9 6.1-3.6 9.1-1.6.2.1 19.8 13.8 43.3 19.7 16.5 4.2 25.1 19.7 23.8 42.7v.6c0 2.7.1 16.5-2.6 23.4-.5 1.3-1.4 2.3-2.5 3.1-1.6.9-38.8 24.7-101.2 24.7z"/><path class="st0" d="M256 381.1c-62.4 0-99.7-23.8-101.2-24.8-1.1-.7-2-1.8-2.5-3.1-2.6-6.7-2.7-19.8-2.6-23.1-1.6-23.4 7.1-39.3 23.7-43.5 23.5-6 43.1-19.6 43.3-19.7 2.9-2.1 7-1.4 9.1 1.6 2.1 2.9 1.4 7-1.6 9.1-.9.6-21.7 15.1-47.6 21.7-13.8 3.5-14.6 20.5-14 30.3v.5c-.1 4.8.3 12.3 1.2 16.5 8.2 4.6 41.6 21.5 92.2 21.5 3.6 0 6.5 2.9 6.5 6.5s-2.9 6.5-6.5 6.5z"/></svg>